#define Menu_width 10
#define Menu_height 8
static unsigned char Menu_bits[] = {
   0xff, 0x03, 0xff, 0x03, 0x00, 0x00, 0xff, 0x03, 0xff, 0x03, 0x00, 0x00,
   0xff, 0x03, 0xff, 0x03 };
