#define Menu_width 9
#define Menu_height 8
static unsigned char Menu_bits[] = {
   0xff, 0x01, 0xff, 0x01, 0x00, 0x00, 0xff, 0x01, 0xff, 0x01, 0x00, 0x00,
   0xff, 0x01, 0xff, 0x01 };
