#define PlayPause_width 10
#define PlayPause_height 8
static unsigned char PlayPause_bits[] = {
   0x5b, 0x00, 0xdb, 0x00, 0xdb, 0x01, 0xdb, 0x03, 0xdb, 0x03, 0xdb, 0x01,
   0xdb, 0x00, 0x5b, 0x00 };
