#define PlayPause_width 9
#define PlayPause_height 8
static unsigned char PlayPause_bits[] = {
   0x2a, 0x00, 0x6a, 0x00, 0xea, 0x00, 0xea, 0x01, 0xea, 0x01, 0xea, 0x00,
   0x6a, 0x00, 0x2a, 0x00 };
