#define Reset_width 10
#define Reset_height 8
static unsigned char Reset_bits[] = {
   0xfe, 0x00, 0xff, 0x01, 0xc3, 0x01, 0xe3, 0x03, 0xe3, 0x03, 0xc3, 0x01,
   0xbf, 0x00, 0x7e, 0x00 };
