#define Reset_width 9
#define Reset_height 8
static unsigned char Reset_bits[] = {
   0x1c, 0x00, 0x22, 0x00, 0x41, 0x00, 0x51, 0x01, 0xe1, 0x00, 0x41, 0x00,
   0x02, 0x00, 0x3c, 0x00 };
