#define Reset_width 10
#define Reset_height 8
static unsigned char Reset_bits[] = {
   0x3c, 0x00, 0x42, 0x00, 0x81, 0x00, 0xa1, 0x02, 0xc1, 0x01, 0x81, 0x00,
   0x02, 0x00, 0x7c, 0x00 };
