#define SkipForward_width 10
#define SkipForward_height 8
static unsigned char SkipForward_bits[] = {
   0x22, 0x00, 0x66, 0x00, 0xee, 0x00, 0xfe, 0x01, 0xfe, 0x01, 0xee, 0x00,
   0x66, 0x00, 0x22, 0x00 };
